<svg id="SC-Logo_-_Ice_White_2_" xmlns="http://www.w3.org/2000/svg" xmlns:xlink="http://www.w3.org/1999/xlink" viewBox="0 0 165.406 53.387">
  <defs>
    <style>
      .cls-1, .cls-2 {
        clip-path: url(#clip-path);
      }

      .cls-2 {
        opacity: 0.3;
      }

      .cls-3 {
        clip-path: url(#clip-path-4);
      }

      .cls-4 {
        fill: #fff;
      }

      .cls-5 {
        clip-path: url(#clip-path-6);
      }

      .cls-6 {
        clip-path: url(#clip-path-10);
      }
    </style>
    <clipPath id="clip-path">
      <rect id="Rectangle_12968" data-name="Rectangle 12968" width="165.406" height="53.387"/>
    </clipPath>
    <clipPath id="clip-path-4">
      <rect id="Rectangle_12959" data-name="Rectangle 12959" width="24.848" height="16.777"/>
    </clipPath>
    <clipPath id="clip-path-6">
      <rect id="Rectangle_12961" data-name="Rectangle 12961" width="23.004" height="45.949"/>
    </clipPath>
    <clipPath id="clip-path-10">
      <path id="Path_5" data-name="Path 5" d="M94.435,43.564a.7.7,0,0,0-.692.692V59.361a20.184,20.184,0,0,1-3.69.461c-2.825,0-4.555-.865-4.555-4.439V44.256a.7.7,0,0,0-.692-.692H83.193a.7.7,0,0,0-.692.692V55.325c0,5.592,3.69,6.976,7.553,6.976a18.2,18.2,0,0,0,3.747-.4v.173c0,3.517-.922,4.266-3.978,4.266a52.856,52.856,0,0,1-5.477-.4h-.115a.545.545,0,0,0-.577.577v.922c0,.4.173.577.634.692a24.027,24.027,0,0,0,5.535.577c4.555,0,6.861-1.384,6.861-6.63V44.256a.7.7,0,0,0-.692-.692H94.435Zm9.052.4a5.5,5.5,0,0,0-2.248,1.672,6.974,6.974,0,0,0-1.384,2.594,10.429,10.429,0,0,0-.461,3.344v2.594a12.017,12.017,0,0,0,.461,3.344,7.456,7.456,0,0,0,1.384,2.594,6.224,6.224,0,0,0,2.248,1.614,7.229,7.229,0,0,0,3.056.577c.807,0,1.557-.058,2.248-.115a15.872,15.872,0,0,0,1.96-.288c.288-.058.461-.115.519-.231.115-.115.115-.288.115-.519V59.938a.523.523,0,0,0-.173-.4.833.833,0,0,0-.4-.115h-.115a13.613,13.613,0,0,1-2.018.173c-.577.058-1.326.058-2.133.058a3.643,3.643,0,0,1-3.113-1.384,6.935,6.935,0,0,1-1.1-4.209V51.463a6.562,6.562,0,0,1,1.1-4.209,3.79,3.79,0,0,1,3.113-1.384c.807,0,1.557,0,2.133.058.634.058,1.268.115,2.018.173h.115a.833.833,0,0,0,.4-.115.449.449,0,0,0,.173-.4V44.371a1.151,1.151,0,0,0-.115-.519,1.086,1.086,0,0,0-.519-.231,15.873,15.873,0,0,0-1.96-.288c-.749-.058-1.5-.115-2.248-.115a9.9,9.9,0,0,0-3.056.749m19.083,7.264a5.851,5.851,0,0,1,1.153-3.978,4.224,4.224,0,0,1,3.344-1.268,4.1,4.1,0,0,1,3.286,1.211c.749.807,1.1,2.133,1.1,4.093v.288H122.57Zm-1.038-5.765a8.378,8.378,0,0,0-1.9,5.765v3a10.937,10.937,0,0,0,.634,3.92,7.313,7.313,0,0,0,1.73,2.479,6.211,6.211,0,0,0,2.421,1.326,11.524,11.524,0,0,0,2.825.4,26.969,26.969,0,0,0,3.171-.173c.98-.115,1.9-.231,2.883-.4.288-.058.461-.115.519-.231.115-.115.115-.288.115-.519V59.88a.349.349,0,0,0-.173-.346.819.819,0,0,0-.346-.115h-.173c-.807.115-1.73.173-2.825.288-1.1.058-2.133.115-3.171.115a4.536,4.536,0,0,1-3.517-1.268c-.807-.807-1.153-2.248-1.153-4.209v-.461h11.242c.4,0,.634-.231.634-.749V51.347a11.189,11.189,0,0,0-.461-3.229A7.913,7.913,0,0,0,132.6,45.64a5.843,5.843,0,0,0-2.306-1.557,7.883,7.883,0,0,0-3.229-.577,6.522,6.522,0,0,0-5.535,1.96M24.33,57.286a2.822,2.822,0,0,1-.4-1.441,7.064,7.064,0,0,1,.115-1.1l.634-3.517a6.512,6.512,0,0,1,1.211-3.113,3.23,3.23,0,0,1,2.652-1.038,12.539,12.539,0,0,1,1.441.058,11.008,11.008,0,0,0,1.153.115L29.4,56.709a16.819,16.819,0,0,1-1.787.807,5.159,5.159,0,0,1-1.787.346c-.749,0-1.268-.173-1.5-.577m-1.73-12.8c-1.73,1.326-2.825,3.459-3.344,6.342a2.559,2.559,0,0,0-.115.749l-.173,1.038a9.062,9.062,0,0,0-.231,1.326,5.046,5.046,0,0,0-.115.922c0,.288-.058.634-.058.922a8.194,8.194,0,0,0,.346,2.421,6.861,6.861,0,0,0,.98,2.076,5.263,5.263,0,0,0,1.73,1.441,5.776,5.776,0,0,0,2.594.519,7.668,7.668,0,0,0,2.594-.461,9.6,9.6,0,0,0,2.652-1.5l-.115.98a.517.517,0,0,0,.115.519.655.655,0,0,0,.461.173h3.4a.607.607,0,0,0,.577-.231,1.159,1.159,0,0,0,.231-.461l2.94-17.008a.793.793,0,0,0-.115-.692,2.285,2.285,0,0,0-.749-.346,21.624,21.624,0,0,0-3.459-.634c-1.211-.115-2.364-.231-3.517-.231a12.244,12.244,0,0,0-6.63,2.133M53.387,48a3.216,3.216,0,0,1,2.594-1.1A2.815,2.815,0,0,1,58,47.542a2.386,2.386,0,0,1,.577,1.787,2.807,2.807,0,0,1-.058.692,3.374,3.374,0,0,1-.115.749H52.061A7.738,7.738,0,0,1,53.387,48m-3.344-3.229a11.2,11.2,0,0,0-3.344,6.63l-.4,2.364a5.68,5.68,0,0,0-.115.98,4.959,4.959,0,0,0-.058.922,6.789,6.789,0,0,0,.577,3,5.788,5.788,0,0,0,1.557,2.076A5.329,5.329,0,0,0,50.5,61.956a8.223,8.223,0,0,0,2.652.4,24.953,24.953,0,0,0,3.805-.231,25.233,25.233,0,0,0,3.286-.634,1.3,1.3,0,0,0,.634-.288,1.338,1.338,0,0,0,.231-.577l.461-2.537a.525.525,0,0,0-.058-.461.838.838,0,0,0-.577-.058c-.346,0-.749.058-1.326.058-.519.058-1.1.058-1.672.115s-1.211.058-1.787.058c-.634,0-1.211.058-1.73.058a3.886,3.886,0,0,1-2.306-.519,2.194,2.194,0,0,1-.692-1.845,2.365,2.365,0,0,1,.058-.634,2.894,2.894,0,0,1,.115-.692H62.38c.461,0,.749-.288.865-.807l.346-1.96c.058-.288.058-.634.115-.922a4.66,4.66,0,0,0,.058-.922,7.35,7.35,0,0,0-.461-2.767,6.282,6.282,0,0,0-1.326-2.248,5.935,5.935,0,0,0-2.191-1.5,7.961,7.961,0,0,0-3-.519,9.931,9.931,0,0,0-6.745,2.248m21.332-7.437a7.562,7.562,0,0,0-2.883,1.614,8.435,8.435,0,0,0-2.076,3.171,13.951,13.951,0,0,0-.807,5.073v4.67a14.172,14.172,0,0,0,.807,5.073,8,8,0,0,0,2.076,3.171,6.662,6.662,0,0,0,2.883,1.672,11.631,11.631,0,0,0,3.113.461c.692,0,1.326,0,1.9-.058.519,0,1.038-.058,1.441-.058a7.1,7.1,0,0,0,1.153-.115c.346-.058.692-.115,1.1-.173a1.159,1.159,0,0,0,.461-.231.567.567,0,0,0,.173-.461V59.765a.459.459,0,0,0-.519-.519H80.08c-.288,0-.692.058-1.1.058a10.656,10.656,0,0,1-1.384.058c-.519,0-1.038.058-1.557.058h-1.5a6.068,6.068,0,0,1-2.306-.4,5.042,5.042,0,0,1-1.845-1.268,7.013,7.013,0,0,1-1.268-2.364,12.819,12.819,0,0,1-.461-3.574v-4.67a12.956,12.956,0,0,1,.461-3.632,5.81,5.81,0,0,1,1.268-2.364,4.432,4.432,0,0,1,1.845-1.268,6.068,6.068,0,0,1,2.306-.4H76.1c.519.058,1.038.058,1.557.115s.98.058,1.441.115a8.533,8.533,0,0,0,1.153.058h.115a.487.487,0,0,0,.346-.115.432.432,0,0,0,.058-.288v-1.73c0-.231-.173-.4-.519-.461q-1.124-.173-2.594-.346a26.392,26.392,0,0,0-3.056-.173c-1.153.231-2.191.4-3.229.692M8.417,37.165a9.085,9.085,0,0,0-3.171,1.211,6.453,6.453,0,0,0-2.191,2.306,7.767,7.767,0,0,0-.807,3.69,6.14,6.14,0,0,0,.692,2.767A6.556,6.556,0,0,0,5.246,49.56L9.4,52.27a5.082,5.082,0,0,1,1.384,1.211,2.079,2.079,0,0,1,.346,1.153,2.381,2.381,0,0,1-.288,1.326,2.714,2.714,0,0,1-.749.865,6.248,6.248,0,0,1-1.1.461,9.463,9.463,0,0,1-1.326.115,13.116,13.116,0,0,1-1.384-.058c-.577,0-1.153-.058-1.787-.115s-1.211-.058-1.787-.115S1.672,57,1.326,57H1.268a.652.652,0,0,0-.692.634L0,60.918v.115c0,.288.173.461.519.577a18.779,18.779,0,0,0,2.825.577,31.921,31.921,0,0,0,3.574.231,18.416,18.416,0,0,0,4.036-.461,10.4,10.4,0,0,0,3.344-1.5A6.691,6.691,0,0,0,16.546,57.8a8.454,8.454,0,0,0,.807-3.978A5.684,5.684,0,0,0,16.546,51a10.126,10.126,0,0,0-2.767-2.594L9.859,45.87a10.306,10.306,0,0,1-1.384-1.038,1.217,1.217,0,0,1-.346-.922,2.286,2.286,0,0,1,.231-1.153,1.667,1.667,0,0,1,.634-.634,2.449,2.449,0,0,1,.98-.288,7.351,7.351,0,0,1,1.153-.058c.577,0,1.211,0,1.96.058.749,0,1.441.058,2.076.115.692.058,1.268.058,1.845.115a10.3,10.3,0,0,0,1.211.058h.058c.4,0,.577-.173.692-.577l.634-3.4V38.03a.439.439,0,0,0-.4-.461,10.859,10.859,0,0,0-1.268-.288,13.6,13.6,0,0,0-1.787-.231c-.634-.058-1.326-.115-2.018-.173s-1.326-.058-1.96-.058a19.69,19.69,0,0,0-3.747.346m106.024-.346a.6.6,0,0,0-.634.634V61.437a.655.655,0,0,0,.173.461.6.6,0,0,0,.461.231h1.73a.524.524,0,0,0,.461-.231.655.655,0,0,0,.173-.461V37.453a.655.655,0,0,0-.173-.461.567.567,0,0,0-.461-.173ZM42.2,36.3a.7.7,0,0,0-.519.231.792.792,0,0,0-.288.461L37.071,61.379v.115a.655.655,0,0,0,.173.461.523.523,0,0,0,.4.173h4.093A.524.524,0,0,0,42.2,61.9a.792.792,0,0,0,.288-.461l4.324-24.387v-.115a.459.459,0,0,0-.519-.519H42.2Z" transform="translate(0 -36.3)"/>
    </clipPath>
  </defs>
  <g id="Group_25" data-name="Group 25">
    <g id="Group_24" data-name="Group 24" class="cls-1">
      <g id="Group_20" data-name="Group 20" class="cls-1">
        <g id="Group_14" data-name="Group 14" class="cls-2">
          <g id="Group_13" data-name="Group 13" transform="translate(123.32 8.879)">
            <g id="Group_12" data-name="Group 12" class="cls-3">
              <path id="Path_1" data-name="Path 1" class="cls-4" d="M235.086,15.788l3.805.98L238.2,16.6c-.231-.058-.461-.058-.692-.115a2.807,2.807,0,0,0-.692-.058h-.692a9.906,9.906,0,0,0-4.439,1.1,13.441,13.441,0,0,0-3.747,2.767,14.166,14.166,0,0,0-2.71,4.036,15.353,15.353,0,0,0-1.326,4.958c-.058.577-.115,1.038-.173,1.441a2.9,2.9,0,0,1-.288.922,1.031,1.031,0,0,1-.577.519,2.112,2.112,0,0,1-.922.115h-.577a8.12,8.12,0,0,1-1.153-.058c-.4,0-.865-.058-1.153-.058h-.75L214.1,31.7h.807a9.359,9.359,0,0,1,1.211.058c.461,0,.865.058,1.211.058h.577a4.572,4.572,0,0,0,.98-.115,1.635,1.635,0,0,0,.577-.519,3.321,3.321,0,0,0,.288-.98c.058-.4.115-.865.173-1.5a16.094,16.094,0,0,1,1.384-5.073,14.52,14.52,0,0,1,2.767-4.151,13.034,13.034,0,0,1,3.805-2.883,10.391,10.391,0,0,1,4.555-1.1h.692a2.807,2.807,0,0,1,.692.058,2.894,2.894,0,0,1,.692.115,3.318,3.318,0,0,1,.577.115" transform="translate(-213.985 -15.442)"/>
            </g>
          </g>
        </g>
        <g id="Group_17" data-name="Group 17" class="cls-2">
          <g id="Group_16" data-name="Group 16" transform="translate(142.345 0.922)">
            <g id="Group_15" data-name="Group 15" class="cls-5">
              <path id="Path_2" data-name="Path 2" class="cls-4" d="M270.173,23.746V21.209a.731.731,0,0,0-.058-.346v-.115a.981.981,0,0,0-.058-.4v-.115c0-.115-.058-.231-.058-.346v-.115c0-.115-.058-.288-.058-.4-.058-.173-.058-.4-.115-.577a.212.212,0,0,0-.058-.173,1.782,1.782,0,0,0-.115-.461.212.212,0,0,0-.058-.173c-.058-.173-.058-.346-.115-.577v-.115c0-.115-.058-.231-.058-.346,0-.058,0-.058-.058-.115v-.173c-.058-.115-.058-.288-.115-.4v-.115l-.173-.519c0-.058,0-.115-.058-.115a1.069,1.069,0,0,1-.115-.4.212.212,0,0,0-.058-.173l-.173-.519h0c-.058-.173-.115-.288-.173-.461,0-.058-.058-.058-.058-.115a.819.819,0,0,1-.115-.346v-.058l-.058-.058a.974.974,0,0,1-.115-.288c0-.058-.058-.115-.058-.173l-.173-.346c0-.058,0-.058-.058-.115h0a1.726,1.726,0,0,0-.231-.461v-.058a1.446,1.446,0,0,0-.231-.4.056.056,0,0,0-.058-.058c0-.058-.058-.058-.058-.115-.058-.115-.115-.173-.173-.288,0-.058-.058-.115-.058-.173-.058-.115-.115-.173-.173-.288,0-.058-.058-.058-.058-.115a.056.056,0,0,0-.058-.058l-.058-.058a.124.124,0,0,0-.115-.115c-.058-.058-.058-.115-.115-.173a.3.3,0,0,1-.115-.231c-.058-.058-.058-.058-.058-.115V9.679a.3.3,0,0,1-.115-.231c-.058-.058-.058-.115-.115-.115-.058-.058-.115-.173-.173-.231,0-.058-.058-.058-.058-.115h0c-.058-.115-.115-.173-.173-.288,0-.058-.058-.058-.058-.115l-.519-.692a.056.056,0,0,0-.058-.058c-.058-.058-.115-.173-.231-.231h0c0-.058-.058-.058-.058-.115l-.173-.173c-.058-.058-.058-.115-.115-.115l-.173-.173h0l-.115-.115L264,6.738l-.115-.115-.173-.173-.058-.058c0-.058-.058-.058-.115-.115L263.37,6.1c-.058-.058-.115-.058-.115-.115l-.173-.173-.058-.058c-.058,0-.058-.058-.115-.058l-.173-.173c-.058-.058-.115-.058-.115-.115L262.5,5.3a.056.056,0,0,0-.058-.058.056.056,0,0,1-.058-.058l-.058-.058-.173-.173c-.058-.058-.115-.058-.115-.115a.8.8,0,0,0-.231-.173l-.058-.058-.058-.058-.173-.173a.124.124,0,0,1-.115-.115c-.058-.058-.173-.115-.231-.173a.2.2,0,0,0-.115-.058h-.058c-.058-.058-.173-.115-.231-.173-.058,0-.058-.058-.115-.058-.115-.058-.231-.173-.346-.231h0a1.206,1.206,0,0,1-.346-.231c-.058,0-.058-.058-.115-.058a.437.437,0,0,0-.231-.115h-.058c-.058-.058-.115-.058-.173-.115-.058,0-.058-.058-.115-.058a1.261,1.261,0,0,1-.288-.173h0a.056.056,0,0,1-.058-.058c-.058-.058-.173-.058-.231-.115-.058,0-.058-.058-.115-.058a.2.2,0,0,1-.115-.058.056.056,0,0,1-.058-.058c-.058,0-.058-.058-.115-.058s-.115-.058-.231-.058a.2.2,0,0,1-.115-.058h-.058c-.058,0-.115-.058-.173-.058s-.058-.058-.115-.058c-.115-.058-.231-.058-.346-.115L253.569.8h0c.115.058.231.058.346.115.058,0,.058,0,.115.058s.173.058.231.115c.058,0,.058.058.115.058.058.058.173.058.231.115a.2.2,0,0,1,.115.058c.058.058.173.058.231.115.058,0,.058.058.115.058.115.058.173.115.288.115a.056.056,0,0,1,.058.058l.346.173a.2.2,0,0,0,.115.058c.058.058.173.058.231.115.115.058.173.115.231.115s.058.058.115.058l.346.173h0c.115.058.231.173.346.231l.058.058c.115.058.173.115.288.173l.115.115c.058.058.173.115.231.173s.115.058.115.115a.8.8,0,0,0,.231.173c.058.058.115.058.173.115a.8.8,0,0,0,.231.173c.058.058.115.058.173.115l.173.173c.058.058.115.058.173.115s.115.058.173.115.115.115.173.115c.058.058.115.115.173.115.058.058.115.058.115.115l.173.173c.058.058.115.115.173.115l.173.173.115.115.173.173.115.115.173.173c.058.058.115.115.115.173l.173.173c.058.058.058.115.115.115l.173.173.115.115c.058.058.115.173.173.231,0,.058.058.058.058.115a1.528,1.528,0,0,0,.288.346h0c.115.115.173.231.288.346a.2.2,0,0,1,.058.115.8.8,0,0,0,.173.231c.058.058.058.115.115.115a.8.8,0,0,1,.173.231c.058.058.058.115.115.173a.8.8,0,0,1,.173.231c.058.058.058.115.115.173s.115.173.173.231.058.115.115.173a.3.3,0,0,1,.115.231c.058.058.058.115.115.173.058.115.115.173.173.288.058.058.058.115.115.173.058.115.115.173.173.288a.2.2,0,0,0,.058.115,1.445,1.445,0,0,0,.231.4v.058c.058.173.173.288.231.461a.2.2,0,0,0,.058.115l.173.346c0,.058.058.115.058.173a.974.974,0,0,1,.115.288c0,.058.058.115.058.173a.819.819,0,0,1,.115.346.2.2,0,0,0,.058.115,3.972,3.972,0,0,0,.173.461h0l.173.519c0,.058.058.115.058.173a1.357,1.357,0,0,1,.115.461c0,.058,0,.058.058.115.058.173.115.346.173.577,0,.058,0,.058.058.115.058.173.058.346.115.461,0,.058.058.173.058.231s0,.058.058.115c.058.115.058.288.115.4v.115c0,.115.058.231.058.346V17a.981.981,0,0,1,.058.4v.058c0,.115.058.231.058.346v.115c0,.115.058.231.058.4v.058c0,.173.058.288.058.4V18.9c0,.115.058.231.058.346v.058c0,.173.058.288.058.4v.115a.731.731,0,0,0,.058.346v3.574a28.076,28.076,0,0,1-1.96,8.879,25.112,25.112,0,0,1-4.382,7.207,22.443,22.443,0,0,1-6.111,4.9,18.558,18.558,0,0,1-7.149,2.076c1.268-.058,2.594-.173,3.863-.288a5.749,5.749,0,0,0,.922-.115c.288-.058.577-.058.922-.115.173,0,.288-.058.461-.058a20.086,20.086,0,0,0,4.728-1.672,18.467,18.467,0,0,0,4.612-3.344l1.384-1.384a24.364,24.364,0,0,0,4.266-6.976,26.292,26.292,0,0,0,1.9-8.533v-.577c-.288.231-.288.115-.288,0" transform="translate(-247.112 -1.261)"/>
            </g>
          </g>
        </g>
        <g id="Group_18" data-name="Group 18" class="cls-1">
          <path id="Path_3" data-name="Path 3" class="cls-4" d="M231.716-.012A17.673,17.673,0,0,1,239.5,1.43a18.326,18.326,0,0,1,6.457,4.9,23.515,23.515,0,0,1,4.324,7.725,26.479,26.479,0,0,1,1.268,9.686,27.414,27.414,0,0,1-2.248,9.628,24.3,24.3,0,0,1-5.131,7.553,21.424,21.424,0,0,1-7.034,4.67,17.173,17.173,0,0,1-8.014,1.1c-.519-.058-.98-.115-1.326-.173a2.2,2.2,0,0,1-.922-.346,1.574,1.574,0,0,1-.519-.692,3.763,3.763,0,0,1-.115-1.268,5.421,5.421,0,0,1,.058-.692c0-.4.058-.98.058-1.557.058-.577.058-1.153.115-1.557a3.9,3.9,0,0,1,.058-.692,2.74,2.74,0,0,1,.346-1.268,1.467,1.467,0,0,1,.692-.634,2.693,2.693,0,0,1,.98-.173,6.977,6.977,0,0,1,1.1.058,10.986,10.986,0,0,0,4.9-.807,13.174,13.174,0,0,0,4.266-2.94,14.317,14.317,0,0,0,3.056-4.612,17.589,17.589,0,0,0,1.384-5.823,16.5,16.5,0,0,0-.749-5.881,14.328,14.328,0,0,0-2.537-4.728,12.024,12.024,0,0,0-3.92-3.113,10.216,10.216,0,0,0-4.785-1.038,12.017,12.017,0,0,0-4.555,1.1A13.034,13.034,0,0,0,222.9,12.73a17.381,17.381,0,0,0-2.767,4.151,18.321,18.321,0,0,0-1.384,5.073c-.058.577-.115,1.1-.173,1.5a3.321,3.321,0,0,1-.288.98,1.262,1.262,0,0,1-.577.519,1.705,1.705,0,0,1-.98.115h-.577a9.359,9.359,0,0,1-1.211-.058c-.4,0-.865-.058-1.211-.058h-.577a1.527,1.527,0,0,1-.98-.288,1.069,1.069,0,0,1-.4-.692,3.816,3.816,0,0,1,0-1.153q.086-.692.173-1.557a24.967,24.967,0,0,1,2.191-8.071,24.666,24.666,0,0,1,4.266-6.63,21.092,21.092,0,0,1,6-4.67,21.482,21.482,0,0,1,7.322-1.9" transform="translate(-89.659 0.012)"/>
        </g>
        <g id="Group_19" data-name="Group 19" class="cls-1">
          <path id="Path_4" data-name="Path 4" class="cls-4" d="M19.544,38.1l-.634,3.4a.608.608,0,0,1-.692.577h-.058c-.231,0-.634-.058-1.211-.058-.577-.058-1.153-.058-1.845-.115s-1.384-.058-2.076-.115c-.749-.058-1.384-.058-1.96-.058a7.351,7.351,0,0,0-1.153.058,4.87,4.87,0,0,0-.98.288,1.352,1.352,0,0,0-.634.634,2.155,2.155,0,0,0-.231,1.153,1.414,1.414,0,0,0,.346.922A10.305,10.305,0,0,0,9.8,45.828l3.92,2.537a8.651,8.651,0,0,1,2.767,2.594,5.019,5.019,0,0,1,.807,2.825,9.226,9.226,0,0,1-.807,3.978,7.774,7.774,0,0,1-2.248,2.652,9.294,9.294,0,0,1-3.344,1.5,15.2,15.2,0,0,1-4.036.461,22.333,22.333,0,0,1-3.574-.231c-.98-.115-1.9-.346-2.767-.519C.173,61.51,0,61.337,0,61.048v-.115l.577-3.286a.652.652,0,0,1,.692-.634h.115a8.28,8.28,0,0,0,1.384.115c.577.058,1.153.058,1.787.115s1.211.058,1.787.115a13.116,13.116,0,0,0,1.384.058A9.463,9.463,0,0,0,9.052,57.3a3.684,3.684,0,0,0,1.1-.461,1.835,1.835,0,0,0,.749-.865,3.006,3.006,0,0,0,.288-1.326,2.225,2.225,0,0,0-.346-1.153,4.273,4.273,0,0,0-1.384-1.211L5.3,49.575a6.072,6.072,0,0,1-3-5.189,7.767,7.767,0,0,1,.807-3.69A6.018,6.018,0,0,1,5.3,38.391,9.085,9.085,0,0,1,8.475,37.18a19.525,19.525,0,0,1,3.69-.346c.577,0,1.268,0,1.96.058s1.384.115,2.018.173a16.772,16.772,0,0,1,1.787.231c.519.115.922.173,1.268.288a.439.439,0,0,1,.4.461V38.1Zm9.628,4.382a24.552,24.552,0,0,1,3.517.231,21.624,21.624,0,0,1,3.459.634,2.285,2.285,0,0,1,.749.346.793.793,0,0,1,.115.692l-2.94,17.008a1.159,1.159,0,0,1-.231.461.769.769,0,0,1-.577.231h-3.4a.655.655,0,0,1-.461-.173.517.517,0,0,1-.115-.519l.115-.98a9.6,9.6,0,0,1-2.652,1.5,7.649,7.649,0,0,1-2.594.4,5.949,5.949,0,0,1-2.594-.519,4.237,4.237,0,0,1-1.73-1.441,4.953,4.953,0,0,1-.98-2.076,8.478,8.478,0,0,1-.346-2.421,4.959,4.959,0,0,1,.058-.922c.058-.288.058-.634.115-.922a9.062,9.062,0,0,1,.231-1.326l.173-1.038A6.056,6.056,0,0,0,19.2,50.9c.519-2.94,1.614-5.073,3.344-6.342a10.467,10.467,0,0,1,6.63-2.076m1.9,4.728a5.947,5.947,0,0,0-1.153-.115,12.54,12.54,0,0,0-1.441-.058,3.23,3.23,0,0,0-2.652,1.038,7.95,7.95,0,0,0-1.211,3.113l-.634,3.517a7.878,7.878,0,0,0-.115,1.1,2.36,2.36,0,0,0,.4,1.441,1.684,1.684,0,0,0,1.5.634,5.159,5.159,0,0,0,1.787-.346,16.82,16.82,0,0,0,1.787-.807Zm15.8-10.262L42.548,61.337a.792.792,0,0,1-.288.461.6.6,0,0,1-.461.231H37.705a.449.449,0,0,1-.4-.173.567.567,0,0,1-.173-.461v-.115l4.324-24.387a.792.792,0,0,1,.288-.461,1.036,1.036,0,0,1,.519-.231h4.093a.459.459,0,0,1,.519.519ZM63.706,49.518a5.276,5.276,0,0,1-.058.922c-.058.288-.058.634-.115.922l-.346,1.96c-.115.519-.4.807-.865.807H51.542c-.058.231-.058.461-.115.692,0,.231-.058.461-.058.634a2.194,2.194,0,0,0,.692,1.845,3.886,3.886,0,0,0,2.306.519c.519,0,1.1,0,1.73-.058.634,0,1.211-.058,1.787-.058.577-.058,1.153-.058,1.672-.115a11.618,11.618,0,0,1,1.326-.058,1.446,1.446,0,0,1,.577.058c.115.058.115.231.058.461l-.461,2.537a.884.884,0,0,1-.865.865,33,33,0,0,1-3.286.634,33.633,33.633,0,0,1-3.805.231,8.223,8.223,0,0,1-2.652-.4A7.012,7.012,0,0,1,48.2,60.7a6.15,6.15,0,0,1-1.557-2.076,6.96,6.96,0,0,1-.577-3,5.276,5.276,0,0,1,.058-.922c.058-.288.058-.634.115-.98l.4-2.364a10.892,10.892,0,0,1,3.344-6.63,9.829,9.829,0,0,1,6.745-2.248,7.961,7.961,0,0,1,3,.519,5.935,5.935,0,0,1,2.191,1.5,6.282,6.282,0,0,1,1.326,2.248,8.7,8.7,0,0,1,.461,2.767m-5.073-.288a2.649,2.649,0,0,0-.577-1.787,2.815,2.815,0,0,0-2.018-.634,3.051,3.051,0,0,0-2.594,1.1,6.114,6.114,0,0,0-1.268,2.825h6.342a3.968,3.968,0,0,0,.115-.749V49.23m21.908,12.4a1.159,1.159,0,0,1-.461.231c-.346.058-.692.115-1.1.173a7.1,7.1,0,0,1-1.153.115,11.122,11.122,0,0,1-1.441.058c-.519,0-1.153.058-1.9.058a11.631,11.631,0,0,1-3.113-.461,7.007,7.007,0,0,1-2.883-1.672,8.435,8.435,0,0,1-2.076-3.171,13.951,13.951,0,0,1-.807-5.073v-4.67a13.951,13.951,0,0,1,.807-5.073,8,8,0,0,1,2.076-3.171,6.54,6.54,0,0,1,2.883-1.614,11.631,11.631,0,0,1,3.113-.461,25.672,25.672,0,0,1,3.056.173q1.47.173,2.594.346c.346.058.519.173.519.461V39.6a.432.432,0,0,1-.058.288.487.487,0,0,1-.346.115h-.115c-.346,0-.692-.058-1.153-.058-.461-.058-.922-.058-1.441-.115s-1.038-.058-1.557-.115H74.43a6.068,6.068,0,0,0-2.306.4,4.432,4.432,0,0,0-1.845,1.268,7.013,7.013,0,0,0-1.268,2.364,12.956,12.956,0,0,0-.461,3.632v4.67a12.523,12.523,0,0,0,.461,3.574,5.456,5.456,0,0,0,1.268,2.364,4.432,4.432,0,0,0,1.845,1.268,6.068,6.068,0,0,0,2.306.4h1.5c.519,0,1.038-.058,1.557-.058s.98-.058,1.384-.058a7.745,7.745,0,0,1,1.1-.058h.115a.459.459,0,0,1,.519.519v1.384c.115-.058.058.115-.058.231m9.282,7.091a24.027,24.027,0,0,1-5.535-.577c-.461-.115-.634-.288-.634-.692v-.922a.578.578,0,0,1,.577-.577h.115a52.854,52.854,0,0,0,5.477.4c3.056,0,3.978-.749,3.978-4.266v-.173a18.2,18.2,0,0,1-3.747.4c-3.863,0-7.553-1.326-7.553-6.976V44.214a.7.7,0,0,1,.692-.692h1.614a.7.7,0,0,1,.692.692V55.283c0,3.574,1.73,4.439,4.555,4.439a20.184,20.184,0,0,0,3.69-.461V44.214a.7.7,0,0,1,.692-.692H96.05a.7.7,0,0,1,.692.692V62.029c-.058,5.3-2.306,6.688-6.918,6.688m21.447-7.034a1.086,1.086,0,0,1-.519.231c-.577.115-1.211.173-1.96.288-.749.058-1.5.115-2.248.115a7.409,7.409,0,0,1-3.056-.577,7,7,0,0,1-2.248-1.614,6.237,6.237,0,0,1-1.384-2.594,10.2,10.2,0,0,1-.461-3.344V51.593a12.017,12.017,0,0,1,.461-3.344,6.238,6.238,0,0,1,1.384-2.594,6.583,6.583,0,0,1,5.3-2.248c.807,0,1.557.058,2.248.115a15.872,15.872,0,0,1,1.96.288c.288.058.461.115.519.231.115.115.115.288.115.519V45.77a.523.523,0,0,1-.173.4.833.833,0,0,1-.4.115h-.115a13.008,13.008,0,0,0-2.018-.173c-.577-.058-1.326-.058-2.133-.058a3.79,3.79,0,0,0-3.113,1.384,6.562,6.562,0,0,0-1.1,4.209v2.594a6.562,6.562,0,0,0,1.1,4.209,3.643,3.643,0,0,0,3.113,1.384c.807,0,1.557,0,2.133-.058.634,0,1.268-.115,2.018-.173h.115a.833.833,0,0,1,.4.115.449.449,0,0,1,.173.4v1.211c.058.058,0,.231-.115.346m5.362.173a.6.6,0,0,1-.461.231h-1.73a.524.524,0,0,1-.461-.231.655.655,0,0,1-.173-.461V37.411a.655.655,0,0,1,.173-.461.567.567,0,0,1,.461-.173h1.73a.6.6,0,0,1,.634.634V61.394a.767.767,0,0,1-.173.461m17.815-8.879c0,.519-.231.749-.634.749H122.57v.461a6.227,6.227,0,0,0,1.153,4.209,4.755,4.755,0,0,0,3.517,1.268c.98,0,2.018-.058,3.171-.115,1.1-.058,2.076-.173,2.825-.288h.173a.82.82,0,0,1,.346.115.349.349,0,0,1,.173.346v1.153a1.151,1.151,0,0,1-.115.519.633.633,0,0,1-.519.231,24.753,24.753,0,0,1-2.883.4,26.97,26.97,0,0,1-3.171.173,9.3,9.3,0,0,1-2.825-.4,6.211,6.211,0,0,1-2.421-1.326,7.313,7.313,0,0,1-1.73-2.479,9.625,9.625,0,0,1-.634-3.92v-3a8.378,8.378,0,0,1,1.9-5.765,7.162,7.162,0,0,1,5.535-2.133,8.069,8.069,0,0,1,3.229.577,6.52,6.52,0,0,1,2.306,1.557,6.151,6.151,0,0,1,1.384,2.479,11.491,11.491,0,0,1,.461,3.229v1.96Zm-2.94-1.787c0-1.9-.346-3.286-1.1-4.093a5.053,5.053,0,0,0-6.63.058,5.955,5.955,0,0,0-1.153,3.978v.288h8.879Z" transform="translate(0 -15.33)"/>
        </g>
      </g>
      <g id="Group_23" data-name="Group 23" class="cls-1">
        <g id="Group_21" data-name="Group 21" class="cls-6" transform="translate(0 20.928)">
          <rect id="Rectangle_12966" data-name="Rectangle 12966" class="cls-4" width="65.378" height="30.21" transform="translate(-0.922 -2.594)"/>
        </g>
        <g id="Group_22" data-name="Group 22" class="cls-6" transform="translate(0 20.928)">
          <path id="Path_6" data-name="Path 6" class="cls-4" d="M182.771,69.563H111.8V31.8h56.73l-.692,7.495,15.912,1.441Z" transform="translate(-47.344 -34.394)"/>
        </g>
      </g>
    </g>
  </g>
</svg>
